<?xml version="1.0" encoding="UTF-8"?>
<svg xmlns="http://www.w3.org/2000/svg" version="1.1" viewBox="0 0 1024 747.31">
  <!-- Generator: Adobe Illustrator 29.3.1, SVG Export Plug-In . SVG Version: 2.1.0 Build 151)  -->
  <defs>
    <style>
      .st0 {
        fill: #fff;
      }

      .st1 {
        fill: #7f7f7f;
      }

      .st2 {
        opacity: .99;
      }
    </style>
  </defs>
  <g id="Capa_1" class="st2">
    <path class="st1" d="M52.75,716.16c-17.49,0-29.16-15.93-26.03-35.62l15.24-96.89c3.12-19.68,19.79-35.62,37.26-35.62h257.38c10.49,0,20.54-9.63,22.38-21.39l65.69-416.61c3.11-19.68,19.78-35.61,37.26-35.61h105.7c17.49,0,29.16,15.93,26.04,35.61l-69.17,438.68c-14.58,92.54-92.99,167.54-175.11,167.54v-.08H52.75Z"/>
    <path class="st1" d="M500.91,689.37l67.73-429.48c2.34-14.77,14.84-26.72,27.95-26.72h281.63c61.6,0,102.66,56.24,91.67,125.65l-36.54,231.68c-10.93,69.34-69.74,125.58-131.33,125.58h-281.63c-13.11,0-21.81-11.95-19.47-26.71ZM646.41,573.94c-1.39,8.89,3.85,16.04,11.71,16.04h133.84c7.82,0,15.35-7.15,16.74-16.04l31.64-200.42c1.39-8.89-3.85-16.04-11.71-16.04h-133.84c-7.87,0-15.4,7.16-16.79,16.04l-31.58,200.42Z"/>
    <path class="st0" d="M105.09,656.19c-17.49,0-29.16-15.93-26.03-35.62l15.24-96.89c3.12-19.68,19.79-35.62,37.26-35.62h257.38c10.49,0,20.54-9.63,22.39-21.39L477.02,50.06c3.12-19.68,19.78-35.61,37.26-35.61h105.71c17.49,0,29.16,15.93,26.04,35.61l-69.17,438.68c-14.58,92.54-92.99,167.54-175.11,167.54v-.08H105.09Z"/>
    <path class="st0" d="M553.25,629.4l67.73-429.48c2.34-14.77,14.84-26.72,27.95-26.72h281.63c61.6,0,102.66,56.24,91.67,125.65l-36.54,231.68c-10.93,69.34-69.74,125.58-131.33,125.58h-281.63c-13.11,0-21.81-11.95-19.47-26.71ZM698.74,513.98c-1.39,8.89,3.85,16.04,11.71,16.04h133.84c7.82,0,15.35-7.15,16.74-16.04l31.64-200.42c1.39-8.89-3.85-16.04-11.71-16.04h-133.84c-7.87,0-15.4,7.16-16.79,16.04l-31.58,200.42Z"/>
  </g>
</svg>